#!OML:ASF H:\Terrain\Patient Classification 1\PLAYGROUND\JustinFriday\JustinFriday.ASF
:FULLY-SPECIFIED
:DEGREES
2192
root 0.458054 11.1254 -9.98413 -35.1918 -8.15314 -3.58544
lowerback 33.3291 0.48483 3.07903
upperback 5.95711 1.94796 2.31913
thorax -10.4547 0.813758 0.0773779
lowerneck 13.997 -7.73519 -16.6913
upperneck 9.11217 -12.9073 7.94543
head 2.12657 -7.00607 5.18328
rclavicle 1.09829e-014 8.74653e-015
rhumerus 68.9976 0.950274 -58.2862
rradius 47.0628
rwrist 13.29
rhand 11.8012 -33.9854
rfingers 7.12502
rthumb 36.8327 -780.093
lclavicle 1.09829e-014 8.74653e-015
lhumerus 71.2408 -0.0582435 61.741
lradius 39.928
lwrist -15.5149
lhand 30.899 1.81314
lfingers 7.12502
lthumb 54.5133 20.2981
rfemur -45.047 -13.4476 25.468
rtibia 118.193
rfoot -17.4024 -11.3282
rtoes 19.6318
lfemur -47.4039 16.5367 -10.76
ltibia 86.5354
lfoot -9.70644 -14.9491
ltoes -17.1536
2193
root 0.414721 10.9523 -9.7371 -36.401 -7.72589 -3.40662
lowerback 33.5163 0.625377 3.09662
upperback 5.39374 2.17563 2.31165
thorax -11.1563 0.906819 -0.0365833
lowerneck 16.3041 -7.64451 -16.5681
upperneck 8.94056 -13.1064 7.40447
head 1.72307 -7.14348 5.12029
rclavicle -1.16786e-015 -5.96354e-015
rhumerus 67.8883 1.06016 -56.9246
rradius 46.1452
rwrist 12.5966
rhand 10.6705 -33.6509
rfingers 7.12502
rthumb 35.762 -780.026
lclavicle -1.16786e-015 -5.96354e-015
lhumerus 71.0618 -1.1549 60.7745
lradius 38.675
lwrist -14.4494
lhand 31.2058 1.57175
lfingers 7.12502
lthumb 54.7877 19.8629
rfemur -45.9763 -13.0038 25.4619
rtibia 116.545
rfoot -18.017 -10.6775
rtoes 18.1024
lfemur -47.1549 17.0031 -10.5609
ltibia 89.2877
lfoot -10.8475 -15.471
ltoes -15.1832
2194
root 0.377726 10.7938 -9.48199 -37.7477 -7.4413 -3.32641
lowerback 33.8785 0.107709 2.14278
upperback 4.73451 1.26249 2.7158
thorax -12.0973 0.507979 1.26166
lowerneck 17.7724 -5.99036 -18.4123
upperneck 9.74428 -11.5123 7.34746
head 1.67298 -6.47177 5.45298
rclavicle 4.96962e-015 1.74931e-014
rhumerus 68.3394 3.91895 -55.9507
rradius 45.3171
rwrist 11.7074
rhand 10.0972 -33.5814
rfingers 7.12502
rthumb 35.2185 -780.086
lclavicle 4.96962e-015 1.74931e-014
lhumerus 68.9401 0.0789963 58.6537
lradius 37.4757
lwrist -13.236
lhand 30.9462 1.30159
lfingers 7.12502
lthumb 54.5556 19.7569
rfemur -46.3472 -12.5463 25.5093
rtibia 114.552
rfoot -18.2263 -10.3796
rtoes 14.9752
lfemur -46.5099 17.3252 -10.0617
ltibia 91.9484
lfoot -12.1591 -15.8054
ltoes -14.6204
2195
root 0.34324 10.645 -9.21652 -38.9783 -7.18285 -3.33046
lowerback 34.0445 0.477284 2.99153
upperback 3.83896 2.02065 2.10017
thorax -13.1323 0.796947 -0.168733
lowerneck 21.2453 -6.18432 -16.6968
upperneck 9.72448 -12.0381 7.45882
head 1.14858 -6.7535 5.40559
rclavicle 3.39922e-014 1.98288e-014
rhumerus 65.5572 2.91347 -55.0501
rradius 44.6718
rwrist 11.3448
rhand 9.7489 -33.5775
rfingers 7.12502
rthumb 34.8881 -780.16
lclavicle 3.39922e-014 1.98288e-014
lhumerus 69.2074 -3.15914 56.0732
lradius 36.5664
lwrist -11.1922
lhand 30.0153 1.49287
lfingers 7.12502
lthumb 53.7208 20.518
rfemur -46.5873 -12.1755 25.6637
rtibia 112.338
rfoot -18.1149 -10.3675
rtoes 10.5691
lfemur -45.7642 17.5574 -9.4466
ltibia 94.4505
lfoot -13.8825 -16.2584
ltoes -13.2337
2196
root 0.308722 10.5063 -8.94513 -40.12 -6.82487 -3.31637
lowerback 33.9097 0.113088 2.29823
upperback 4.18503 1.33463 2.54055
thorax -12.7265 0.530234 0.960691
lowerneck 19.3232 -5.71554 -17.9114
upperneck 10.9451 -11.3556 6.86044
head 1.75074 -6.45748 5.27998
rclavicle -1.98785e-015 -2.98177e-015
rhumerus 67.0928 4.22198 -54.0479
rradius 44.2881
rwrist 10.8742
rhand 9.61631 -33.4766
rfingers 7.12502
rthumb 34.7623 -780.088
lclavicle -1.98785e-015 -2.98177e-015
lhumerus 68.9606 -1.5078 54.1733
lradius 35.6741
lwrist -9.8719
lhand 28.7463 1.61148
lfingers 7.12502
lthumb 52.5763 21.3685
rfemur -46.7531 -11.9692 25.7225
rtibia 109.942
rfoot -18.135 -10.1479
rtoes 7.06317
lfemur -45.1628 17.8697 -8.93241
ltibia 97.127
lfoot -15.808 -16.5495
ltoes -12.4843
2197
root 0.273818 10.3689 -8.66656 -41.169 -6.5273 -3.45629
lowerback 33.4676 0.0189956 3.0279
upperback 6.34084 1.30718 2.08808
thorax -10.082 0.529036 0.104351
lowerneck 11.4962 -7.56414 -16.0219
upperneck 13.1423 -12.1987 5.86877
head 3.49288 -6.72595 4.26521
rclavicle 8.99501e-015 1.09332e-015
rhumerus 70.3432 1.05353 -53.9181
rradius 43.6519
rwrist 10.8399
rhand 10.0045 -33.5379
rfingers 7.12502
rthumb 35.1306 -780.063
lclavicle 8.99501e-015 1.09332e-015
lhumerus 73.2066 0.320484 52.2709
lradius 35.0474
lwrist -8.73178
lhand 28.6424 1.09714
lfingers 7.12502
lthumb 52.4824 20.9118
rfemur -46.8835 -11.8247 25.9753
rtibia 107.473
rfoot -18.2544 -9.88577
rtoes 3.85393
lfemur -44.6978 18.2136 -8.20492
ltibia 99.9297
lfoot -17.64 -16.5813
ltoes -12.2863
2198
root 0.233363 10.2364 -8.37975 -42.045 -6.50159 -3.48526
lowerback 33.014 -0.0128547 2.95286
upperback 6.63386 1.21693 2.15736
thorax -9.58478 0.497441 0.254458
lowerneck 9.56465 -7.31602 -16.8784
upperneck 14.9385 -11.757 6.60673
head 4.38561 -6.55178 4.52504
rclavicle 6.85807e-015 1.0138e-014
rhumerus 71.3514 0.93234 -53.3681
rradius 42.974
rwrist 10.4003
rhand 10.4391 -33.9365
rfingers 7.12502
rthumb 35.5427 -780.364
lclavicle 6.85807e-015 1.0138e-014
lhumerus 73.4851 0.96552 50.6524
lradius 34.6067
lwrist -7.64837
lhand 29.2587 0.486519
lfingers 7.12502
lthumb 53.0393 19.954
rfemur -47.1918 -11.255 26.3757
rtibia 105.093
rfoot -18.3823 -9.45172
rtoes 0.785044
lfemur -44.0513 18.8129 -7.25011
ltibia 102.394
lfoot -19.4889 -16.8195
ltoes -11.9062
2199
root 0.192028 10.1165 -8.08921 -43.0302 -6.40567 -2.95939
lowerback 32.4873 0.301115 2.5295
upperback 6.84603 1.45507 2.21006
thorax -9.15654 0.62605 0.451229
lowerneck 7.97642 -6.93064 -19.1186
upperneck 17.1653 -11.4093 8.47086
head 5.52282 -6.47688 5.39764
rclavicle 1.59028e-015 -1.15295e-014
rhumerus 71.3413 0.692125 -52.6179
rradius 42.8204
rwrist 10.3531
rhand 10.6898 -34.1489
rfingers 7.12502
rthumb 35.7803 -780.519
lclavicle 1.59028e-015 -1.15295e-014
lhumerus 73.7051 1.09114 49.2832
lradius 34.2245
lwrist -6.5985
lhand 28.7926 -0.0940283
lfingers 7.12502
lthumb 52.6182 19.6371
rfemur -47.326 -10.4483 26.1371
rtibia 102.78
rfoot -18.7028 -8.44555
rtoes -0.69542
lfemur -42.9151 19.6113 -6.67604
ltibia 104.588
lfoot -21.4101 -16.9757
ltoes -12.0335
